Coordinates
version=1
nRows=8
nColumns=36
inDegrees=yes

Units are S.I. units (second, meters, Newtons, ...)
If the header above contains a line with 'inDegrees', this indicates whether rotational values are in degrees (yes) or radians (no).

endheader
time	pelvis_tilt	pelvis_list	pelvis_rotation	pelvis_tx	pelvis_ty	pelvis_tz	hip_flexion_r	hip_adduction_r	hip_rotation_r	knee_angle_r	knee_angle_r_beta	ankle_angle_r	subtalar_angle_r	mtp_angle_r	hip_flexion_l	hip_adduction_l	hip_rotation_l	knee_angle_l	knee_angle_l_beta	ankle_angle_l	subtalar_angle_l	mtp_angle_l	lumbar_extension	lumbar_bending	lumbar_rotation	arm_flex_r	arm_add_r	arm_rot_r	elbow_flex_r	pro_sup_r	arm_flex_l	arm_add_l	arm_rot_l	elbow_flex_l	pro_sup_l
      0.00000000	      0.11142934	     -2.50260279	      3.14220147	     -0.11677714	      0.86162973	      0.12992021	      0.11039722	     -2.11637596	     -6.62261173	      2.36470353	      0.04127186	      4.44083467	     -2.61482959	     -6.99190568	     -1.37885896	     -7.22229768	     -7.47630657	      5.18306318	      0.09046152	     10.14843120	     -0.30404640	     -6.99190568	     -0.37244665	      4.14829042	     -3.91962325	     28.88932246	     -2.68607388	     55.31232627	    108.45938400	    102.72253059	      8.69378736	     -4.90499104	     10.64889771	    116.00426286	     97.99394594
      0.01666670	     -2.94780717	     -2.51553975	      3.37450239	     -0.11540172	      0.85981467	      0.12605574	      3.40042780	     -2.36677868	     -6.74580017	      2.27293436	      0.03967019	      5.30468074	     -0.71110389	     -7.11702858	      2.54534403	     -6.53728045	     -8.36514372	      5.60123629	      0.09776002	     10.52376087	      0.27128322	     -7.11702858	      3.52754484	      3.72896778	     -2.17467244	     27.25357190	     -5.10303653	     55.28947618	    110.95004599	     96.77955643	      7.38833375	     -3.59901954	     11.17409764	    115.77119353	     92.68118278
      0.03333330	     -3.87483766	     -1.58884249	      3.12198802	     -0.11633695	      0.85817755	      0.12672870	      4.08715506	     -3.38753565	     -7.71546092	      1.47335057	      0.02571482	      5.28491714	      1.41435404	     -7.24000948	      3.79325427	     -5.51722599	    -10.04813545	      5.92708679	      0.10344718	     10.44411075	      1.86800254	     -7.24000948	      4.84603140	      2.29402542	      0.33298107	     24.44122054	     -6.05583903	     52.75630276	    113.11183794	     94.46473092	      8.94693129	     -3.16743831	     12.26998510	    114.16798469	     90.00971023
      0.05000000	     -4.07943039	     -0.90119796	      2.97026134	     -0.11633236	      0.86072086	      0.12412547	      4.00096498	     -4.24704224	     -7.84305827	      1.04836497	      0.01829742	      5.51112147	      2.64591316	     -7.34090240	      3.81261131	     -4.64336814	    -10.34697354	      5.42885701	      0.09475143	      9.89367835	      1.85665211	     -7.34090240	      5.16517368	      1.53778375	      1.51898736	     23.41198679	     -6.77441512	     51.38575953	    112.71447734	     93.86332908	      9.01938741	     -2.85497413	     11.83674408	    113.19982201	     87.34432262
      0.06666670	     -4.11504539	     -0.54795550	      2.79127909	     -0.11777226	      0.86131455	      0.12284238	      3.90395017	     -4.69091674	     -7.53887837	      0.80939829	      0.01412667	      5.62480649	      2.95012850	     -7.41286327	      3.85927557	     -4.11585233	    -10.43746084	      5.30669633	      0.09261932	      9.62588179	      1.75152683	     -7.41286327	      5.23618236	      1.35308648	      2.25227543	     22.87014362	     -7.24670314	     50.18342234	    111.80299315	     91.28025921	      8.45495012	     -2.68919523	     11.31688343	    112.97901789	     83.98667101
      0.08333330	     -4.04217596	     -0.29331542	      2.80735113	     -0.11898168	      0.86045406	      0.12164357	      3.74433425	     -5.03762913	     -7.24391303	      0.70507493	      0.01230588	      5.71894473	      2.96133277	     -7.47141461	      3.96420064	     -3.71102902	    -10.13089980	      5.51407468	      0.09623876	      9.50824302	      1.48384443	     -7.47141461	      5.17283973	      1.17669827	      2.79812088	     22.59973849	     -7.72911879	     48.49947867	    110.87881079	     88.99306800	      7.87170687	     -2.79246503	     10.95963679	    113.21175251	     81.43235685
      0.10000000	     -4.00799345	     -0.14188478	      2.85251951	     -0.11993866	      0.85945399	      0.11917167	      3.67552698	     -5.33810659	     -6.88612487	      0.66306773	      0.01157272	      5.77376923	      2.70038061	     -7.48786230	      4.24469638	     -3.42041833	     -9.82610943	      5.95410646	      0.10391876	      9.55529972	      1.20877051	     -7.48786230	      5.11399872	      1.15289439	      2.77930915	     22.61231693	     -7.92422476	     47.55978208	    110.53122322	     86.68763860	      6.62112211	     -3.13487354	     10.04828164	    114.44056399	     79.08666713
      0.11666670	     -3.84022042	     -0.03975565	      2.96103893	     -0.12057231	      0.86009578	      0.11700874	      3.49934558	     -5.56649074	     -6.77243642	      0.66992338	      0.01169237	      5.75179607	      2.44506194	     -7.49527641	      4.46123914	     -3.19570472	     -9.35659240	      6.54331315	      0.11420236	      9.46459367	      0.62691199	     -7.49527641	      4.89856580	      1.08065665	      2.93410479	     22.21913399	     -8.26990528	     46.42644776	    110.69888474	     85.89284370	      5.83362692	     -3.59433578	      9.47644168	    115.33106652	     78.03451517
